<svg width="20" height="34" viewBox="0 0 20 34" fill="none" xmlns="http://www.w3.org/2000/svg">
<path d="M3.33334 20.0002L4.44417 17.7777L6.66668 16.6668L4.44417 15.556L3.33334 13.3335L2.2225 15.556L0 16.6668L2.2225 17.7777L3.33334 20.0002Z" fill="#FFE8BB"/>
<path d="M16.6666 13.3335L15.5558 15.556L13.3333 16.6668L15.5558 17.7777L16.6666 20.0002L17.7774 17.7777L19.9999 16.6668L17.7774 15.556L16.6666 13.3335Z" fill="#FFE8BB"/>
<path d="M11.1109 2.22274L10.0001 0.000244141L8.88925 2.22274L6.66675 3.33357L8.88925 4.44441L10.0001 6.6669L11.1109 4.44441L13.3334 3.33357L11.1109 2.22274Z" fill="#FFE8BB"/>
<path d="M4.58325 12.5002C5.27361 12.5002 5.83325 11.9406 5.83325 11.2502C5.83325 10.5599 5.27361 10.0002 4.58325 10.0002C3.8929 10.0002 3.33325 10.5599 3.33325 11.2502C3.33325 11.9406 3.8929 12.5002 4.58325 12.5002Z" fill="#FFE8BB"/>
<path d="M1.25 9.16699C1.94036 9.16699 2.5 8.60735 2.5 7.91699C2.5 7.22664 1.94036 6.66699 1.25 6.66699C0.559644 6.66699 0 7.22664 0 7.91699C0 8.60735 0.559644 9.16699 1.25 9.16699Z" fill="#FFE8BB"/>
<path d="M4.58325 5.8335C5.27361 5.8335 5.83325 5.27385 5.83325 4.5835C5.83325 3.89314 5.27361 3.3335 4.58325 3.3335C3.8929 3.3335 3.33325 3.89314 3.33325 4.5835C3.33325 5.27385 3.8929 5.8335 4.58325 5.8335Z" fill="#FFE8BB"/>
<path d="M1.25 2.50024C1.94036 2.50024 2.5 1.9406 2.5 1.25024C2.5 0.559888 1.94036 0.000244141 1.25 0.000244141C0.559644 0.000244141 0 0.559888 0 1.25024C0 1.9406 0.559644 2.50024 1.25 2.50024Z" fill="#FFE8BB"/>
<path d="M18.75 12.5002C19.4404 12.5002 20 11.9406 20 11.2502C20 10.5599 19.4404 10.0002 18.75 10.0002C18.0596 10.0002 17.5 10.5599 17.5 11.2502C17.5 11.9406 18.0596 12.5002 18.75 12.5002Z" fill="#FFE8BB"/>
<path d="M15.4167 9.16699C16.1071 9.16699 16.6667 8.60735 16.6667 7.91699C16.6667 7.22664 16.1071 6.66699 15.4167 6.66699C14.7264 6.66699 14.1667 7.22664 14.1667 7.91699C14.1667 8.60735 14.7264 9.16699 15.4167 9.16699Z" fill="#FFE8BB"/>
<path d="M18.75 5.8335C19.4404 5.8335 20 5.27385 20 4.5835C20 3.89314 19.4404 3.3335 18.75 3.3335C18.0596 3.3335 17.5 3.89314 17.5 4.5835C17.5 5.27385 18.0596 5.8335 18.75 5.8335Z" fill="#FFE8BB"/>
<path d="M15.4167 2.50024C16.1071 2.50024 16.6667 1.9406 16.6667 1.25024C16.6667 0.559888 16.1071 0.000244141 15.4167 0.000244141C14.7264 0.000244141 14.1667 0.559888 14.1667 1.25024C14.1667 1.9406 14.7264 2.50024 15.4167 2.50024Z" fill="#FFE8BB"/>
<path d="M12.0833 20.0002C12.7736 20.0002 13.3333 19.4406 13.3333 18.7502C13.3333 18.0599 12.7736 17.5002 12.0833 17.5002C11.3929 17.5002 10.8333 18.0599 10.8333 18.7502C10.8333 19.4406 11.3929 20.0002 12.0833 20.0002Z" fill="#FFE8BB"/>
<path d="M8.75 16.667C9.44036 16.667 10 16.1073 10 15.417C10 14.7266 9.44036 14.167 8.75 14.167C8.05964 14.167 7.5 14.7266 7.5 15.417C7.5 16.1073 8.05964 16.667 8.75 16.667Z" fill="#FFE8BB"/>
<path d="M12.0833 13.3335C12.7736 13.3335 13.3333 12.7739 13.3333 12.0835C13.3333 11.3931 12.7736 10.8335 12.0833 10.8335C11.3929 10.8335 10.8333 11.3931 10.8333 12.0835C10.8333 12.7739 11.3929 13.3335 12.0833 13.3335Z" fill="#FFE8BB"/>
<path d="M8.75 10.0002C9.44036 10.0002 10 9.4406 10 8.75024C10 8.05989 9.44036 7.50024 8.75 7.50024C8.05964 7.50024 7.5 8.05989 7.5 8.75024C7.5 9.4406 8.05964 10.0002 8.75 10.0002Z" fill="#FFE8BB"/>
<path d="M2.07227 25.6018V32.0002H0.753906V25.6018H2.07227ZM4.62109 28.3352V29.3635H1.71191V28.3352H4.62109ZM4.92871 25.6018V26.6345H1.71191V25.6018H4.92871ZM7.70605 32.0881C7.33691 32.0881 7.00586 32.0295 6.71289 31.9124C6.41992 31.7922 6.1709 31.6267 5.96582 31.4158C5.76367 31.2048 5.6084 30.9602 5.5 30.6819C5.3916 30.4006 5.3374 30.1018 5.3374 29.7854V29.6096C5.3374 29.2493 5.38867 28.9197 5.49121 28.6208C5.59375 28.322 5.74023 28.0627 5.93066 27.843C6.12402 27.6233 6.3584 27.4548 6.63379 27.3376C6.90918 27.2175 7.21973 27.1575 7.56543 27.1575C7.90234 27.1575 8.20117 27.2131 8.46191 27.3245C8.72266 27.4358 8.94092 27.594 9.1167 27.7991C9.29541 28.0042 9.43018 28.2502 9.521 28.5374C9.61182 28.8215 9.65723 29.1379 9.65723 29.4866V30.0139H5.87793V29.1702H8.41357V29.0735C8.41357 28.8977 8.38135 28.741 8.31689 28.6033C8.25537 28.4626 8.16162 28.3513 8.03564 28.2693C7.90967 28.1873 7.74854 28.1462 7.55225 28.1462C7.38525 28.1462 7.2417 28.1829 7.12158 28.2561C7.00146 28.3293 6.90332 28.4319 6.82715 28.5637C6.75391 28.6956 6.69824 28.8508 6.66016 29.0295C6.625 29.2053 6.60742 29.3987 6.60742 29.6096V29.7854C6.60742 29.9758 6.63379 30.1516 6.68652 30.3127C6.74219 30.4739 6.81982 30.613 6.91943 30.7302C7.02197 30.8474 7.14502 30.9382 7.28857 31.0027C7.43506 31.0671 7.60059 31.0994 7.78516 31.0994C8.01367 31.0994 8.22607 31.0554 8.42236 30.9675C8.62158 30.8767 8.79297 30.7405 8.93652 30.5588L9.55176 31.2268C9.45215 31.3704 9.31592 31.5081 9.14307 31.6399C8.97314 31.7717 8.76807 31.8801 8.52783 31.9651C8.2876 32.0471 8.01367 32.0881 7.70605 32.0881ZM12.5664 32.0881C12.1973 32.0881 11.8662 32.0295 11.5732 31.9124C11.2803 31.7922 11.0312 31.6267 10.8262 31.4158C10.624 31.2048 10.4688 30.9602 10.3604 30.6819C10.252 30.4006 10.1978 30.1018 10.1978 29.7854V29.6096C10.1978 29.2493 10.249 28.9197 10.3516 28.6208C10.4541 28.322 10.6006 28.0627 10.791 27.843C10.9844 27.6233 11.2188 27.4548 11.4941 27.3376C11.7695 27.2175 12.0801 27.1575 12.4258 27.1575C12.7627 27.1575 13.0615 27.2131 13.3223 27.3245C13.583 27.4358 13.8013 27.594 13.9771 27.7991C14.1558 28.0042 14.2905 28.2502 14.3813 28.5374C14.4722 28.8215 14.5176 29.1379 14.5176 29.4866V30.0139H10.7383V29.1702H13.2739V29.0735C13.2739 28.8977 13.2417 28.741 13.1772 28.6033C13.1157 28.4626 13.022 28.3513 12.896 28.2693C12.77 28.1873 12.6089 28.1462 12.4126 28.1462C12.2456 28.1462 12.1021 28.1829 11.9819 28.2561C11.8618 28.3293 11.7637 28.4319 11.6875 28.5637C11.6143 28.6956 11.5586 28.8508 11.5205 29.0295C11.4854 29.2053 11.4678 29.3987 11.4678 29.6096V29.7854C11.4678 29.9758 11.4941 30.1516 11.5469 30.3127C11.6025 30.4739 11.6802 30.613 11.7798 30.7302C11.8823 30.8474 12.0054 30.9382 12.1489 31.0027C12.2954 31.0671 12.4609 31.0994 12.6455 31.0994C12.874 31.0994 13.0864 31.0554 13.2827 30.9675C13.4819 30.8767 13.6533 30.7405 13.7969 30.5588L14.4121 31.2268C14.3125 31.3704 14.1763 31.5081 14.0034 31.6399C13.8335 31.7717 13.6284 31.8801 13.3882 31.9651C13.1479 32.0471 12.874 32.0881 12.5664 32.0881ZM18.0464 30.9631V25.2502H19.3208V32.0002H18.1738L18.0464 30.9631ZM15.0405 29.6799V29.5876C15.0405 29.2244 15.0815 28.8948 15.1636 28.5989C15.2456 28.3 15.3657 28.0437 15.5239 27.8298C15.6821 27.616 15.877 27.4504 16.1084 27.3333C16.3398 27.2161 16.6035 27.1575 16.8994 27.1575C17.1777 27.1575 17.4209 27.2161 17.6289 27.3333C17.8398 27.4504 18.0186 27.6174 18.165 27.8342C18.3145 28.0481 18.4346 28.3015 18.5254 28.5945C18.6162 28.8845 18.6821 29.2024 18.7231 29.5481V29.7502C18.6821 30.0813 18.6162 30.3889 18.5254 30.6731C18.4346 30.9573 18.3145 31.2063 18.165 31.4202C18.0186 31.6311 17.8398 31.7952 17.6289 31.9124C17.418 32.0295 17.1719 32.0881 16.8906 32.0881C16.5947 32.0881 16.3311 32.0281 16.0996 31.908C15.8711 31.7878 15.6777 31.6194 15.5195 31.4026C15.3643 31.1858 15.2456 30.9309 15.1636 30.6379C15.0815 30.345 15.0405 30.0256 15.0405 29.6799ZM16.3062 29.5876V29.6799C16.3062 29.8762 16.3208 30.0593 16.3501 30.2292C16.3823 30.3992 16.4336 30.55 16.5039 30.6819C16.5771 30.8108 16.6709 30.9119 16.7852 30.9851C16.9023 31.0554 17.0444 31.0906 17.2114 31.0906C17.4282 31.0906 17.6069 31.0422 17.7476 30.9456C17.8882 30.8459 17.9951 30.7097 18.0684 30.5369C18.1445 30.364 18.1885 30.1648 18.2002 29.9392V29.3635C18.1914 29.179 18.165 29.0134 18.1211 28.8669C18.0801 28.7175 18.0186 28.5901 17.9365 28.4846C17.8574 28.3792 17.7578 28.2971 17.6377 28.2385C17.5205 28.1799 17.3813 28.1506 17.2202 28.1506C17.0562 28.1506 16.9155 28.1887 16.7983 28.2649C16.6812 28.3381 16.5859 28.4392 16.5127 28.5681C16.4424 28.697 16.3896 28.8494 16.3545 29.0251C16.3223 29.198 16.3062 29.3855 16.3062 29.5876Z" fill="#FFE8BB"/>
</svg>
