<svg width="19" height="34" viewBox="0 0 19 34" fill="none" xmlns="http://www.w3.org/2000/svg">
<path d="M12.3692 11.667H5.63083C4.53567 11.6683 3.48575 12.104 2.71135 12.8783C1.93696 13.6527 1.50132 14.7027 1.5 15.7978V20.0003H16.5V15.7978C16.4987 14.7027 16.063 13.6527 15.2886 12.8783C14.5142 12.104 13.4643 11.6683 12.3692 11.667Z" fill="#FFE8BB"/>
<path d="M9 10.0002C11.7614 10.0002 14 7.76166 14 5.00024C14 2.23882 11.7614 0.000244141 9 0.000244141C6.23858 0.000244141 4 2.23882 4 5.00024C4 7.76166 6.23858 10.0002 9 10.0002Z" fill="#FFE8BB"/>
<path d="M4.24854 25.6018H5.5625V29.8293C5.5625 30.3215 5.45703 30.7361 5.24609 31.073C5.03809 31.4099 4.74951 31.6633 4.38037 31.8333C4.01416 32.0032 3.59229 32.0881 3.11475 32.0881C2.63721 32.0881 2.2124 32.0032 1.84033 31.8333C1.47119 31.6633 1.18115 31.4099 0.970215 31.073C0.762207 30.7361 0.658203 30.3215 0.658203 29.8293V25.6018H1.97656V29.8293C1.97656 30.1165 2.02197 30.3508 2.11279 30.5325C2.20361 30.7141 2.33398 30.8474 2.50391 30.9324C2.67676 31.0173 2.88037 31.0598 3.11475 31.0598C3.35498 31.0598 3.55859 31.0173 3.72559 30.9324C3.89551 30.8474 4.02441 30.7141 4.1123 30.5325C4.20312 30.3508 4.24854 30.1165 4.24854 29.8293V25.6018ZM9.13965 30.6863C9.13965 30.5955 9.11328 30.5134 9.06055 30.4402C9.00781 30.3669 8.90967 30.2996 8.76611 30.238C8.62549 30.1736 8.42188 30.115 8.15527 30.0623C7.91504 30.0095 7.69092 29.9436 7.48291 29.8645C7.27783 29.7825 7.09912 29.6843 6.94678 29.5701C6.79736 29.4558 6.68018 29.321 6.59521 29.1658C6.51025 29.0076 6.46777 28.8274 6.46777 28.6252C6.46777 28.426 6.51025 28.2385 6.59521 28.0627C6.68311 27.887 6.80762 27.7317 6.96875 27.5969C7.13281 27.4592 7.33203 27.3523 7.56641 27.2761C7.80371 27.197 8.07031 27.1575 8.36621 27.1575C8.7793 27.1575 9.13379 27.2234 9.42969 27.3552C9.72852 27.4871 9.95703 27.6687 10.1152 27.9001C10.2764 28.1287 10.3569 28.3894 10.3569 28.6824H9.09131C9.09131 28.5593 9.06494 28.4495 9.01221 28.3528C8.9624 28.2532 8.8833 28.1755 8.7749 28.1199C8.66943 28.0613 8.53174 28.032 8.36182 28.032C8.22119 28.032 8.09961 28.0569 7.99707 28.1067C7.89453 28.1536 7.81543 28.218 7.75977 28.3C7.70703 28.3792 7.68066 28.467 7.68066 28.5637C7.68066 28.637 7.69531 28.7029 7.72461 28.7615C7.75684 28.8171 7.80811 28.8684 7.87842 28.9153C7.94873 28.9622 8.03955 29.0061 8.15088 29.0471C8.26514 29.0852 8.40576 29.1204 8.57275 29.1526C8.91553 29.2229 9.22168 29.3152 9.49121 29.4294C9.76074 29.5408 9.97461 29.6931 10.1328 29.8865C10.291 30.0769 10.3701 30.3274 10.3701 30.6379C10.3701 30.8489 10.3232 31.0422 10.2295 31.218C10.1357 31.3938 10.001 31.5476 9.8252 31.6794C9.64941 31.8083 9.43848 31.9094 9.19238 31.9827C8.94922 32.053 8.67529 32.0881 8.37061 32.0881C7.92822 32.0881 7.55322 32.009 7.24561 31.8508C6.94092 31.6926 6.70947 31.4919 6.55127 31.2488C6.396 31.0027 6.31836 30.7507 6.31836 30.4929H7.51807C7.52393 30.6658 7.56787 30.8049 7.6499 30.9104C7.73486 31.0159 7.8418 31.092 7.9707 31.1389C8.10254 31.1858 8.24463 31.2092 8.39697 31.2092C8.56104 31.2092 8.69727 31.1873 8.80566 31.1433C8.91406 31.0964 8.99609 31.0349 9.05176 30.9587C9.11035 30.8796 9.13965 30.7888 9.13965 30.6863ZM13.3804 32.0881C13.0112 32.0881 12.6802 32.0295 12.3872 31.9124C12.0942 31.7922 11.8452 31.6267 11.6401 31.4158C11.438 31.2048 11.2827 30.9602 11.1743 30.6819C11.0659 30.4006 11.0117 30.1018 11.0117 29.7854V29.6096C11.0117 29.2493 11.063 28.9197 11.1655 28.6208C11.2681 28.322 11.4146 28.0627 11.605 27.843C11.7983 27.6233 12.0327 27.4548 12.3081 27.3376C12.5835 27.2175 12.894 27.1575 13.2397 27.1575C13.5767 27.1575 13.8755 27.2131 14.1362 27.3245C14.397 27.4358 14.6152 27.594 14.791 27.7991C14.9697 28.0042 15.1045 28.2502 15.1953 28.5374C15.2861 28.8215 15.3315 29.1379 15.3315 29.4866V30.0139H11.5522V29.1702H14.0879V29.0735C14.0879 28.8977 14.0557 28.741 13.9912 28.6033C13.9297 28.4626 13.8359 28.3513 13.71 28.2693C13.584 28.1873 13.4229 28.1462 13.2266 28.1462C13.0596 28.1462 12.916 28.1829 12.7959 28.2561C12.6758 28.3293 12.5776 28.4319 12.5015 28.5637C12.4282 28.6956 12.3726 28.8508 12.3345 29.0295C12.2993 29.2053 12.2817 29.3987 12.2817 29.6096V29.7854C12.2817 29.9758 12.3081 30.1516 12.3608 30.3127C12.4165 30.4739 12.4941 30.613 12.5938 30.7302C12.6963 30.8474 12.8193 30.9382 12.9629 31.0027C13.1094 31.0671 13.2749 31.0994 13.4595 31.0994C13.688 31.0994 13.9004 31.0554 14.0967 30.9675C14.2959 30.8767 14.4673 30.7405 14.6108 30.5588L15.2261 31.2268C15.1265 31.3704 14.9902 31.5081 14.8174 31.6399C14.6475 31.7717 14.4424 31.8801 14.2021 31.9651C13.9619 32.0471 13.688 32.0881 13.3804 32.0881ZM17.3179 28.2825V32.0002H16.0522V27.2454H17.2432L17.3179 28.2825ZM18.7505 27.2146L18.7285 28.3879C18.667 28.3792 18.5923 28.3718 18.5044 28.366C18.4194 28.3572 18.3418 28.3528 18.2715 28.3528C18.0928 28.3528 17.9375 28.3762 17.8057 28.4231C17.6768 28.467 17.5684 28.533 17.4805 28.6208C17.3955 28.7087 17.3311 28.8157 17.2871 28.9417C17.2461 29.0676 17.2227 29.2112 17.2168 29.3723L16.9619 29.2932C16.9619 28.9856 16.9927 28.7029 17.0542 28.4451C17.1157 28.1843 17.2051 27.9573 17.3223 27.7639C17.4424 27.5706 17.5889 27.4211 17.7617 27.3157C17.9346 27.2102 18.1323 27.1575 18.355 27.1575C18.4253 27.1575 18.4971 27.1633 18.5703 27.175C18.6436 27.1838 18.7036 27.197 18.7505 27.2146Z" fill="#FFE8BB"/>
</svg>
