<svg width="24" height="28" viewBox="0 0 24 28" fill="none" xmlns="http://www.w3.org/2000/svg">
<path d="M4.03737 0C1.81111 0.000426439 0 1.77925 0 3.96532V24.0347C0 26.2209 1.81111 27.9997 4.03751 28H23.0953C23.595 28 24 27.6023 24 27.1116V24.0347V20.9578V7.04222V0.888415C24 0.397726 23.595 0 23.0953 0H4.03737ZM4.03751 1.77683H22.1906V7.04222V20.0692H4.03737C3.21418 20.0694 2.4483 20.3131 1.80938 20.7301V3.96532C1.80938 2.75878 2.80902 1.77697 4.03751 1.77683ZM22.1906 26.223H4.03766C2.80902 26.2229 1.80938 25.2411 1.80938 24.0345C1.80938 22.828 2.80888 21.8462 4.03751 21.8461H22.1906V23.1461H7.94577C7.44609 23.1461 7.04108 23.5439 7.04108 24.0345C7.04108 24.5252 7.44609 24.923 7.94577 24.923H22.1906V26.223Z" fill="#FF6E69"/>
<path d="M8.38229 12.4663V15.8301C8.38229 16.3208 8.7873 16.7185 9.28698 16.7185H14.7131C15.2128 16.7185 15.6178 16.3208 15.6178 15.8301V12.4665C16.8131 11.9953 17.6417 10.8442 17.6417 9.52846C17.6417 7.83194 16.2757 6.44303 14.5672 6.36655C13.9649 5.58389 13.0265 5.11694 12.0002 5.11694C10.9735 5.11694 10.0352 5.58389 9.43303 6.36655C7.7244 6.44303 6.3584 7.83208 6.3584 9.52846C6.3584 10.8443 7.18709 11.9953 8.38229 12.4663ZM9.58169 8.14011C9.65016 8.14011 9.71978 8.14509 9.78912 8.15504C10.1779 8.21147 10.5582 8.01488 10.7317 7.66918C10.9722 7.191 11.4584 6.89377 12.0005 6.89377C12.5424 6.89377 13.0286 7.191 13.2693 7.66947C13.443 8.01517 13.825 8.21119 14.2121 8.15504C14.281 8.14509 14.3505 8.14011 14.4189 8.14011C15.1986 8.14011 15.8329 8.763 15.8329 9.5286C15.8329 10.2258 15.3026 10.8177 14.5996 10.9053C14.1477 10.9616 13.8088 11.3393 13.8088 11.7866V14.9417H10.1917V11.8453C10.1917 11.8443 10.1918 11.8432 10.1918 11.8423C10.2218 11.3742 9.87597 10.9639 9.4022 10.9051C8.69843 10.818 8.16777 10.2263 8.16777 9.52846C8.16777 8.76286 8.80207 8.14011 9.58169 8.14011Z" fill="#FF6E69"/>
</svg>
